<?xml version="1.0" standalone="no"?>
<!DOCTYPE svg PUBLIC "-//W3C//DTD SVG 20010904//EN"
 "http://www.w3.org/TR/2001/REC-SVG-20010904/DTD/svg10.dtd">
<svg version="1.0" xmlns="http://www.w3.org/2000/svg"
 width="700.000000pt" height="700.000000pt" viewBox="0 0 700.000000 700.000000"
 preserveAspectRatio="xMidYMid meet">
<metadata>
Created by potrace 1.14, written by Peter Selinger 2001-2017
</metadata>
<g transform="translate(0.000000,700.000000) scale(0.100000,-0.100000)"
fill="#000000" stroke="none">
<path d="M3360 5394 c-396 -47 -721 -148 -1114 -345 -308 -155 -574 -327
-1076 -699 -429 -317 -460 -341 -535 -411 -66 -63 -144 -159 -129 -159 3 0 81
29 173 64 897 344 1752 506 2462 467 235 -13 394 -37 575 -87 448 -122 910
-396 1305 -771 50 -48 93 -82 98 -77 4 5 37 47 72 94 35 47 140 177 235 290
177 213 302 370 353 443 l30 43 -57 45 c-31 24 -138 112 -237 195 -372 311
-578 466 -780 589 -255 155 -503 252 -770 301 -87 15 -516 28 -605 18z"/>
<path d="M3400 3845 c-106 -30 -181 -92 -224 -184 -17 -37 -21 -65 -21 -146 0
-91 3 -106 32 -167 38 -81 97 -142 172 -177 47 -22 70 -26 146 -26 76 0 99 4
145 26 80 37 125 81 162 157 31 62 33 73 33 172 0 93 -3 112 -27 162 -36 76
-97 141 -161 168 -67 30 -181 36 -257 15z"/>
<path d="M1933 3547 c-34 -45 -148 -186 -253 -312 -193 -231 -370 -458 -370
-474 0 -5 86 -80 192 -168 106 -87 248 -205 318 -261 550 -454 955 -659 1414
-718 177 -22 507 -15 685 15 378 65 747 202 1131 419 267 150 459 280 885 595
425 315 486 362 549 424 60 59 139 153 133 159 -1 2 -72 -24 -157 -57 -479
-186 -998 -333 -1440 -408 -342 -58 -443 -66 -840 -66 -392 0 -470 7 -695 60
-470 111 -968 393 -1368 775 -57 55 -109 100 -114 100 -5 0 -36 -37 -70 -83z"/>
</g>
</svg>
