<?xml version="1.0" encoding="UTF-8" standalone="no"?>
<svg
   xmlns:dc="http://purl.org/dc/elements/1.1/"
   xmlns:cc="http://creativecommons.org/ns#"
   xmlns:rdf="http://www.w3.org/1999/02/22-rdf-syntax-ns#"
   xmlns:svg="http://www.w3.org/2000/svg"
   xmlns="http://www.w3.org/2000/svg"
   xmlns:sodipodi="http://sodipodi.sourceforge.net/DTD/sodipodi-0.dtd"
   xmlns:inkscape="http://www.inkscape.org/namespaces/inkscape"
   width="36mm"
   height="36mm"
   viewBox="0 0 35.999998 36.000001"
   version="1.1"
   id="svg73816"
   inkscape:version="1.0.2 (e86c870879, 2021-01-15, custom)"
   sodipodi:docname="logo_square.svg"
   inkscape:export-filename="D:\git\vtol-neuron.github.io\img\icons\neuron-1024.png"
   inkscape:export-xdpi="722.48889"
   inkscape:export-ydpi="722.48889">
  <defs
     id="defs73810" />
  <sodipodi:namedview
     id="base"
     pagecolor="#ffffff"
     bordercolor="#666666"
     borderopacity="1.0"
     inkscape:pageopacity="0.0"
     inkscape:pageshadow="2"
     inkscape:zoom="4"
     inkscape:cx="49.190549"
     inkscape:cy="40.345121"
     inkscape:document-units="mm"
     inkscape:current-layer="layer1"
     inkscape:document-rotation="0"
     showgrid="false"
     inkscape:window-width="1920"
     inkscape:window-height="1057"
     inkscape:window-x="-8"
     inkscape:window-y="-3"
     inkscape:window-maximized="1"
     inkscape:pagecheckerboard="true"
     showguides="true"
     inkscape:guide-bbox="true"
     inkscape:snap-object-midpoints="true"
     inkscape:snap-page="true">
    <sodipodi:guide
       position="18,36.000001"
       orientation="1,0"
       id="guide13" />
    <sodipodi:guide
       position="-3.7599552e-15,18.000003"
       orientation="0,-1"
       id="guide21" />
  </sodipodi:namedview>
  <metadata
     id="metadata73813">
    <rdf:RDF>
      <cc:Work
         rdf:about="">
        <dc:format>image/svg+xml</dc:format>
        <dc:type
           rdf:resource="http://purl.org/dc/dcmitype/StillImage" />
        <dc:title></dc:title>
      </cc:Work>
    </rdf:RDF>
  </metadata>
  <g
     inkscape:label="Layer 1"
     inkscape:groupmode="layer"
     id="layer1"
     transform="translate(-55.871716,-74.135973)">
    <g
       id="g48544"
       transform="matrix(0.35277777,0,0,-0.35277777,73.304293,90.400234)">
      <path
         d="M 0,0 C 8.029,2.256 9.068,-9.948 1.785,-10.117 -4.035,-10.251 -5.565,-1.564 0,0"
         style="fill:#202944;fill-opacity:1;fill-rule:evenodd;stroke:none"
         id="path48546" />
    </g>
    <g
       id="g48548"
       transform="matrix(0.35277777,0,0,-0.35277777,85.656662,93.549551)">
      <path
         d="M 12,0 C 10.164,-2.875 6.7170001,-4.92 3.3710001,-7.439 -5.864,-14.392 -19.919,-25.236 -36.8,-23.507 c -12.169,1.246 -20.59,10.522 -28.565,16.664 3.08,4.557 6.969,8.306 10.116,12.794 5.87,-5.961 15.335,-12.805 26.78,-13.687 C -13.708,-8.873 0.69200007,-4.564 12,0"
         style="fill:#202944;fill-opacity:1;fill-rule:evenodd;stroke:none"
         id="path48550" />
    </g>
    <g
       id="g48552"
       transform="matrix(0.35277777,0,0,-0.35277777,60.105052,88.314495)">
      <path
         d="m -4.7343295,-6.8058308 c 1.835,2.875 5.283,4.921 8.629,7.43900004 C 13.129671,7.5861692 27.184671,18.430169 44.066671,16.701169 c 12.168,-1.247 20.589,-10.5209998 28.564,-16.66299976 -3.08,-4.55600004 -6.969,-8.30700004 -10.117,-12.79500024 -5.869,5.9600002 -15.334,12.80500024 -26.78,13.68800024 C 20.973671,2.0691692 6.5726705,-2.2428308 -4.7343295,-6.8058308"
         style="fill:#96a3ae;fill-opacity:1;fill-rule:evenodd;stroke:none"
         id="path48554" />
    </g>
  </g>
</svg>
